# Blender v2.83.5 OBJ File: 'Asteroid.blend'
# www.blender.org
mtllib Asteroid.mtl
o Cube_Cube.001
v -0.628186 -0.628186 0.628186
v -0.628186 0.628186 0.628186
v -0.628186 -0.628186 -0.628186
v -0.628186 0.628186 -0.628186
v 0.628186 -0.628186 0.628186
v 0.628186 0.628186 0.628186
v 0.628186 -0.628186 -0.628186
v 0.628186 0.628186 -0.628186
v 0.333333 -1.000000 -1.000000
v -0.333333 -1.000000 -1.000000
v -0.333333 1.000000 -1.000000
v 0.333333 1.000000 -1.000000
v -0.333333 -1.000000 1.000000
v 0.333333 -1.000000 1.000000
v 0.333333 1.000000 1.000000
v -0.333333 1.000000 1.000000
v -1.000000 -1.000000 -0.333333
v -1.000000 -1.000000 0.333333
v -1.000000 1.000000 0.333333
v -1.000000 1.000000 -0.333333
v 1.000000 -1.000000 0.333333
v 1.000000 -1.000000 -0.333333
v 1.000000 1.000000 -0.333333
v 1.000000 1.000000 0.333333
v 0.333333 1.000000 -0.333333
v 0.333333 1.000000 0.333333
v -0.333333 1.000000 -0.333333
v -0.333333 1.000000 0.333333
v -0.333333 -1.000000 -0.333333
v -0.333333 -1.000000 0.333333
v 0.333333 -1.000000 -0.333333
v 0.333333 -1.000000 0.333333
v -1.000000 -0.333333 1.000000
v -1.000000 0.333333 1.000000
v -1.000000 0.333333 -1.000000
v -1.000000 -0.333333 -1.000000
v 1.000000 0.333333 -1.000000
v 1.000000 -0.333333 -1.000000
v 1.000000 0.333333 1.000000
v 1.000000 -0.333333 1.000000
v 0.333333 0.333333 1.000000
v 0.333333 -0.333333 1.000000
v -0.333333 0.333333 1.000000
v -0.333333 -0.333333 1.000000
v -0.333333 0.333333 -1.000000
v -0.333333 -0.333333 -1.000000
v 0.333333 0.333333 -1.000000
v 0.333333 -0.333333 -1.000000
v 1.000000 0.333333 -0.333333
v 1.000000 -0.333333 -0.333333
v 1.000000 0.333333 0.333333
v 1.000000 -0.333333 0.333333
v -1.000000 0.333333 0.333333
v -1.000000 -0.333333 0.333333
v -1.000000 0.333333 -0.333333
v -1.000000 -0.333333 -0.333333
v 0.333333 1.500000 -0.333333
v 0.333333 1.500000 0.333333
v -0.333333 1.500000 -0.333333
v -0.333333 1.500000 0.333333
v -0.333333 0.333333 -1.500000
v -0.333333 -0.333333 -1.500000
v 0.333333 0.333333 -1.500000
v 0.333333 -0.333333 -1.500000
v 1.500000 0.333333 -0.333333
v 1.500000 -0.333333 -0.333333
v 1.500000 0.333333 0.333333
v 1.500000 -0.333333 0.333333
v 0.333333 0.333333 1.400000
v 0.333333 -0.333333 1.400000
v -0.333333 0.333333 1.400000
v -0.333333 -0.333333 1.400000
v -1.500000 0.333333 0.333333
v -1.500000 -0.333333 0.333333
v -1.500000 0.333333 -0.333333
v -1.500000 -0.333333 -0.333333
v -0.333333 -1.500000 -0.333333
v -0.333333 -1.500000 0.333333
v 0.333333 -1.500000 -0.333333
v 0.333333 -1.500000 0.333333
vt 0.541667 0.166667
vt 0.625000 0.166667
vt 0.625000 0.250000
vt 0.541667 0.250000
vt 0.541667 0.416667
vt 0.625000 0.416667
vt 0.625000 0.500000
vt 0.541667 0.500000
vt 0.541667 0.666667
vt 0.625000 0.666667
vt 0.625000 0.750000
vt 0.541667 0.750000
vt 0.541667 0.916667
vt 0.625000 0.916667
vt 0.625000 1.000000
vt 0.541667 1.000000
vt 0.291667 0.666667
vt 0.375000 0.666667
vt 0.375000 0.750000
vt 0.291667 0.750000
vt 0.791667 0.666667
vt 0.875000 0.666667
vt 0.875000 0.750000
vt 0.791667 0.750000
vt 0.708333 0.666667
vt 0.708333 0.750000
vt 0.125000 0.666667
vt 0.208333 0.666667
vt 0.208333 0.750000
vt 0.125000 0.750000
vt 0.625000 0.833333
vt 0.541667 0.833333
vt 0.625000 0.333333
vt 0.541667 0.333333
vt 0.208333 0.500000
vt 0.291667 0.500000
vt 0.291667 0.583333
vt 0.208333 0.583333
vt 0.208333 0.666667
vt 0.291667 0.666667
vt 0.125000 0.500000
vt 0.125000 0.583333
vt 0.708333 0.500000
vt 0.791667 0.500000
vt 0.791667 0.583333
vt 0.708333 0.583333
vt 0.791667 0.666667
vt 0.791667 0.583333
vt 0.625000 0.583333
vt 0.875000 0.500000
vt 0.875000 0.583333
vt 0.375000 0.500000
vt 0.375000 0.583333
vt 0.541667 0.583333
vt 0.541667 0.000000
vt 0.625000 0.000000
vt 0.625000 0.083333
vt 0.541667 0.083333
vt 0.375000 0.083333
vt 0.458333 0.083333
vt 0.458333 0.166667
vt 0.375000 0.166667
vt 0.541667 0.166667
vt 0.541667 0.083333
vt 0.375000 0.000000
vt 0.458333 0.000000
vt 0.458333 0.583333
vt 0.458333 0.666667
vt 0.541667 0.666667
vt 0.541667 0.583333
vt 0.458333 0.500000
vt 0.375000 0.333333
vt 0.458333 0.333333
vt 0.458333 0.416667
vt 0.375000 0.416667
vt 0.458333 0.333333
vt 0.458333 0.416667
vt 0.375000 0.250000
vt 0.458333 0.250000
vt 0.375000 0.833333
vt 0.458333 0.833333
vt 0.458333 0.916667
vt 0.375000 0.916667
vt 0.541667 0.833333
vt 0.458333 0.833333
vt 0.458333 0.750000
vt 0.458333 1.000000
vt 0.375000 1.000000
vt 0.708333 0.583333
vt 0.708333 0.666667
vt 0.541667 0.333333
vt 0.541667 0.416667
vt 0.458333 0.583333
vt 0.458333 0.666667
vt 0.541667 0.916667
vt 0.458333 0.916667
vt 0.458333 0.083333
vt 0.458333 0.166667
vt 0.208333 0.583333
vt 0.291667 0.583333
vn -0.7464 0.4706 -0.4706
vn 0.4706 0.4706 -0.7464
vn 0.7464 0.4706 0.4706
vn -0.4706 0.4706 0.7464
vn 0.4706 -0.7464 0.4706
vn -0.4706 0.7464 0.4706
vn 0.4706 0.7464 0.4706
vn 0.0000 1.0000 0.0000
vn -0.4706 -0.7464 0.4706
vn 0.0000 -1.0000 0.0000
vn 0.4706 0.4706 0.7464
vn 0.0000 0.0000 1.0000
vn -0.4706 0.4706 -0.7464
vn 0.0000 0.0000 -1.0000
vn -0.4706 -0.7464 -0.4706
vn -1.0000 0.0000 0.0000
vn 0.4706 0.7464 -0.4706
vn -0.4706 0.7464 -0.4706
vn 0.4706 -0.7464 -0.4706
vn 0.7464 0.4706 -0.4706
vn 1.0000 0.0000 0.0000
vn -0.7464 0.4706 0.4706
vn -0.7464 -0.4706 0.4706
vn 0.7464 -0.4706 -0.4706
vn -0.4706 -0.4706 -0.7464
vn 0.4706 -0.4706 0.7464
vn -0.4706 -0.4706 0.7464
vn 0.7464 -0.4706 0.4706
vn 0.4706 -0.4706 -0.7464
vn -0.7464 -0.4706 -0.4706
usemtl None
s off
f 55/1/1 20/2/1 4/3/1 35/4/1
f 47/5/2 12/6/2 8/7/2 37/8/2
f 51/9/3 24/10/3 6/11/3 39/12/3
f 43/13/4 16/14/4 2/15/4 34/16/4
f 32/17/5 21/18/5 5/19/5 14/20/5
f 28/21/6 19/22/6 2/23/6 16/24/6
f 24/10/7 26/25/7 15/26/7 6/11/7
f 26/25/8 28/21/8 16/24/8 15/26/8
f 18/27/9 30/28/9 13/29/9 1/30/9
f 30/28/10 32/17/10 14/20/10 13/29/10
f 39/12/11 6/11/11 15/31/11 41/32/11
f 41/32/12 15/31/12 16/14/12 43/13/12
f 35/4/13 4/3/13 11/33/13 45/34/13
f 45/34/14 11/33/14 12/6/14 47/5/14
f 10/35/10 9/36/10 31/37/10 29/38/10
f 32/17/12 30/28/12 78/39/12 80/40/12
f 3/41/15 10/35/15 29/38/15 17/42/15
f 17/42/10 29/38/10 30/28/10 18/27/10
f 12/43/8 11/44/8 27/45/8 25/46/8
f 27/45/16 28/21/16 60/47/16 59/48/16
f 8/7/17 12/43/17 25/46/17 23/49/17
f 23/49/8 25/46/8 26/25/8 24/10/8
f 11/44/18 4/50/18 20/51/18 27/45/18
f 27/45/8 20/51/8 19/22/8 28/21/8
f 9/36/19 7/52/19 22/53/19 31/37/19
f 31/37/10 22/53/10 21/18/10 32/17/10
f 37/8/20 8/7/20 23/49/20 49/54/20
f 49/54/21 23/49/21 24/10/21 51/9/21
f 34/55/22 2/56/22 19/57/22 53/58/22
f 53/58/16 19/57/16 20/2/16 55/1/16
f 18/59/16 54/60/16 56/61/16 17/62/16
f 53/58/8 55/1/8 75/63/8 73/64/8
f 1/65/23 33/66/23 54/60/23 18/59/23
f 33/66/16 34/55/16 53/58/16 54/60/16
f 22/53/21 50/67/21 52/68/21 21/18/21
f 49/54/8 51/9/8 67/69/8 65/70/8
f 7/52/24 38/71/24 50/67/24 22/53/24
f 38/71/21 37/8/21 49/54/21 50/67/21
f 10/72/14 46/73/14 48/74/14 9/75/14
f 48/74/10 46/73/10 62/76/10 64/77/10
f 3/78/25 36/79/25 46/73/25 10/72/25
f 36/79/14 35/4/14 45/34/14 46/73/14
f 14/80/12 42/81/12 44/82/12 13/83/12
f 42/81/21 41/32/21 69/84/21 70/85/21
f 5/19/26 40/86/26 42/81/26 14/80/26
f 40/86/12 39/12/12 41/32/12 42/81/12
f 13/83/27 44/82/27 33/87/27 1/88/27
f 44/82/12 43/13/12 34/16/12 33/87/12
f 21/18/28 52/68/28 40/86/28 5/19/28
f 52/68/21 51/9/21 39/12/21 40/86/21
f 9/75/29 48/74/29 38/71/29 7/52/29
f 48/74/14 47/5/14 37/8/14 38/71/14
f 17/62/30 56/61/30 36/79/30 3/78/30
f 56/61/16 55/1/16 35/4/16 36/79/16
f 57/89/8 59/48/8 60/47/8 58/90/8
f 26/25/21 25/46/21 57/89/21 58/90/21
f 25/46/14 27/45/14 59/48/14 57/89/14
f 28/21/12 26/25/12 58/90/12 60/47/12
f 62/76/14 61/91/14 63/92/14 64/77/14
f 47/5/21 48/74/21 64/77/21 63/92/21
f 46/73/16 45/34/16 61/91/16 62/76/16
f 45/34/8 47/5/8 63/92/8 61/91/8
f 66/93/21 65/70/21 67/69/21 68/94/21
f 51/9/12 52/68/12 68/94/12 67/69/12
f 50/67/14 49/54/14 65/70/14 66/93/14
f 52/68/10 50/67/10 66/93/10 68/94/10
f 70/85/12 69/84/12 71/95/12 72/96/12
f 44/82/10 42/81/10 70/85/10 72/96/10
f 41/32/8 43/13/8 71/95/8 69/84/8
f 43/13/16 44/82/16 72/96/16 71/95/16
f 74/97/16 73/64/16 75/63/16 76/98/16
f 55/1/14 56/61/14 76/98/14 75/63/14
f 54/60/12 53/58/12 73/64/12 74/97/12
f 56/61/10 54/60/10 74/97/10 76/98/10
f 77/99/10 79/100/10 80/40/10 78/39/10
f 31/37/21 32/17/21 80/40/21 79/100/21
f 30/28/16 29/38/16 77/99/16 78/39/16
f 29/38/14 31/37/14 79/100/14 77/99/14
