# Blender v2.83.5 OBJ File: 'AsteroidSmall.blend'
# www.blender.org
mtllib AsteroidSmall.mtl
o Cube_Cube.001
v -0.906720 0.302240 -0.302240
v 0.302240 0.302240 -0.906720
v 0.906720 0.302240 0.302240
v -0.302240 0.302240 0.906720
v 0.302240 -0.906720 0.302240
v -0.302240 0.906720 0.302240
v 0.302240 0.906720 0.302240
v -0.302240 -0.906720 0.302240
v 0.302240 0.302240 0.906720
v -0.302240 0.302240 -0.906720
v 0.302240 -0.906720 -0.302240
v -0.302240 -0.906720 -0.302240
v -0.335035 -0.337194 0.341050
v 0.331966 -0.337194 0.341050
v -0.302240 0.906720 -0.302240
v 0.302240 0.906720 -0.302240
v -0.335035 0.330630 0.341051
v -0.335035 0.330631 -0.339381
v 0.906720 0.302240 -0.302240
v -0.906720 0.302240 0.302240
v -0.906720 -0.302240 0.302240
v -0.906720 -0.302240 -0.302240
v 0.906720 -0.302240 -0.302240
v 0.906720 -0.302240 0.302240
v 0.331966 0.330630 0.341051
v 0.331966 0.330631 -0.339381
v -0.302240 -0.302240 -0.906720
v 0.302240 -0.302240 -0.906720
v -0.335035 -0.337193 -0.339381
v 0.331966 -0.337193 -0.339381
v 0.302240 -0.302240 0.906720
v -0.302240 -0.302240 0.906720
vt 0.000000 0.000000
vt 0.000000 0.000000
vt 0.000000 0.000000
vt 0.000000 0.000000
vt 0.000000 0.000000
vt 0.000000 0.000000
vt 0.000000 0.000000
vt 0.000000 0.000000
vt 0.000000 0.000000
vt 0.000000 0.000000
vt 0.000000 0.000000
vt 0.000000 0.000000
vt 0.291667 0.666667
vt 0.208333 0.666667
vt 0.208333 0.666667
vt 0.291667 0.666667
vt 0.791667 0.583333
vt 0.791667 0.666667
vt 0.791667 0.666667
vt 0.791667 0.583333
vt 0.541667 0.416667
vt 0.541667 0.333333
vt 0.458333 0.333333
vt 0.458333 0.416667
vt 0.541667 0.083333
vt 0.541667 0.166667
vt 0.541667 0.166667
vt 0.541667 0.083333
vt 0.541667 0.583333
vt 0.541667 0.666667
vt 0.541667 0.666667
vt 0.541667 0.583333
vt 0.458333 0.333333
vt 0.458333 0.416667
vt 0.291667 0.583333
vt 0.208333 0.583333
vt 0.458333 0.833333
vt 0.541667 0.833333
vt 0.541667 0.833333
vt 0.458333 0.833333
vt 0.708333 0.583333
vt 0.708333 0.583333
vt 0.708333 0.666667
vt 0.708333 0.666667
vt 0.541667 0.416667
vt 0.541667 0.333333
vt 0.458333 0.666667
vt 0.458333 0.666667
vt 0.458333 0.583333
vt 0.458333 0.583333
vt 0.458333 0.916667
vt 0.458333 0.916667
vt 0.541667 0.916667
vt 0.541667 0.916667
vt 0.458333 0.166667
vt 0.458333 0.166667
vt 0.458333 0.083333
vt 0.458333 0.083333
vt 0.291667 0.583333
vt 0.208333 0.583333
vn -1.0000 -0.0000 0.0000
vn 0.0000 0.0000 -1.0000
vn -0.9987 -0.0515 -0.0000
vn 0.0000 0.0680 -0.9977
vn 0.9984 -0.0568 -0.0000
vn 0.0000 -0.0000 1.0000
vn 0.0496 -0.9988 -0.0000
vn -0.0493 -0.9988 -0.0000
vn 0.0000 0.9981 0.0615
vn 0.0000 1.0000 0.0000
vn -0.9986 0.0000 -0.0525
vn 0.0000 -0.0643 0.9979
vn 0.0000 -0.0672 -0.9977
vn 0.0000 -1.0000 -0.0000
vn -0.9986 -0.0000 0.0523
vn 0.9983 -0.0000 0.0577
vn 0.0000 -0.9988 0.0500
vn -0.0674 0.0000 -0.9977
vn -0.0645 -0.0000 0.9979
vn -0.0607 0.9982 0.0000
vn 0.0000 0.9981 -0.0617
vn 0.0000 -0.9987 -0.0501
vn 0.9983 0.0000 -0.0579
vn 0.0648 -0.0000 0.9979
vn 0.0677 0.0000 -0.9977
vn 0.0610 0.9981 0.0000
vn -0.9986 0.0521 -0.0000
vn 0.9983 0.0575 0.0000
vn 0.0000 0.0651 0.9979
vn 1.0000 0.0000 0.0000
usemtl None
s off
f 24/1/1 3/2/1 19/3/1 23/4/1
f 32/5/2 4/6/2 9/7/2 31/8/2
f 7/9/3 16/10/3 26/11/3 25/12/3
s 1
f 5/13/4 8/14/4 13/15/4 14/16/4
f 15/17/5 6/18/5 17/19/5 18/20/5
f 2/21/6 10/22/6 27/23/6 28/24/6
f 20/25/7 1/26/7 18/27/7 17/28/7
f 19/29/8 3/30/8 25/31/8 26/32/8
f 28/24/9 27/23/9 29/33/9 30/34/9
f 8/14/10 5/13/10 11/35/10 12/36/10
f 31/37/11 9/38/11 25/39/11 14/40/11
f 16/41/12 15/17/12 18/20/12 26/42/12
f 6/18/13 7/43/13 25/44/13 17/19/13
f 7/9/14 6/18/14 15/17/14 16/10/14
f 2/21/15 28/24/15 30/34/15 26/45/15
f 27/23/16 10/22/16 18/46/16 29/33/16
f 10/22/17 2/21/17 26/45/17 18/46/17
f 3/30/18 24/47/18 14/48/18 25/31/18
f 23/49/19 19/29/19 26/32/19 30/50/19
f 24/47/20 23/49/20 30/50/20 14/48/20
f 32/51/21 31/37/21 14/40/21 13/52/21
f 9/38/22 4/53/22 17/54/22 25/39/22
f 4/53/23 32/51/23 13/52/23 17/54/23
f 1/26/24 22/55/24 29/56/24 18/27/24
f 21/57/25 20/25/25 17/28/25 13/58/25
f 22/55/26 21/57/26 13/58/26 29/56/26
f 11/35/27 5/13/27 14/16/27 30/59/27
f 8/14/28 12/36/28 29/60/28 13/15/28
f 12/36/29 11/35/29 30/59/29 29/60/29
f 1/26/30 20/25/30 21/57/30 22/55/30
